<mxfile host="drawio-plugin" modified="2025-09-11T21:37:38.927Z" agent="Mozilla/5.0 (Windows NT 10.0; Win64; x64) AppleWebKit/537.36 (KHTML, like Gecko) Chrome/122.0.0.0 Safari/537.36" version="22.1.22" etag="Vu7DtB3vM9sxyBetSqNz" type="embed" pages="3">
  <diagram id="c1" name="C1 - Contexto">
    <mxGraphModel dx="905" dy="1438" grid="1" gridSize="10" guides="1" tooltips="1" connect="1" arrows="1" fold="1" page="1" pageScale="1" pageWidth="1169" pageHeight="827" math="0" shadow="0">
      <root>
        <mxCell id="0" />
        <mxCell id="1" parent="0" />
        <mxCell id="u1" value="Cliente / Frontend" style="rounded=1;whiteSpace=wrap;html=1;" parent="1" vertex="1">
          <mxGeometry x="60" y="260" width="160" height="60" as="geometry" />
        </mxCell>
        <mxCell id="s1" value="Loan Validation Service&#xa;(Spring Boot)" style="rounded=1;whiteSpace=wrap;html=1;" parent="1" vertex="1">
          <mxGeometry x="360" y="260" width="220" height="70" as="geometry" />
        </mxCell>
        <mxCell id="lhs1" value="Loan History Service&#xa;(externo)" style="ellipse;whiteSpace=wrap;html=1;" parent="1" vertex="1">
          <mxGeometry x="740" y="200" width="200" height="80" as="geometry" />
        </mxCell>
        <mxCell id="log1" value="Observability / Logs" style="ellipse;whiteSpace=wrap;html=1;" parent="1" vertex="1">
          <mxGeometry x="760" y="320" width="160" height="60" as="geometry" />
        </mxCell>
        <mxCell id="e1" value="POST /api/loan-eligibility (JSON)" style="endArrow=block;html=1;" parent="1" source="u1" target="s1" edge="1">
          <mxGeometry relative="1" as="geometry" />
        </mxCell>
        <mxCell id="e2" value="Consulta historial" style="endArrow=block;html=1;" parent="1" source="s1" target="lhs1" edge="1">
          <mxGeometry relative="1" as="geometry" />
        </mxCell>
        <mxCell id="e3" value="MÃ©tricas / Logs" style="endArrow=block;html=1;" parent="1" source="s1" target="log1" edge="1">
          <mxGeometry relative="1" as="geometry" />
        </mxCell>
        <mxCell id="e4" value="Respuesta (eligible / no)" style="endArrow=block;html=1;" parent="1" source="s1" target="u1" edge="1">
          <mxGeometry relative="1" as="geometry" />
        </mxCell>
      </root>
    </mxGraphModel>
  </diagram>
  <diagram id="c2" name="C2 - Contenedores">
    <mxGraphModel dx="603" dy="958" grid="1" gridSize="10" guides="1" tooltips="1" connect="1" arrows="1" fold="1" page="1" pageScale="1" pageWidth="1169" pageHeight="827" math="0" shadow="0">
      <root>
        <mxCell id="0" />
        <mxCell id="1" parent="0" />
        <mxCell id="svc" value="Loan Validation Service" style="swimlane;rounded=1;html=1;" parent="1" vertex="1">
          <mxGeometry x="280" y="140" width="420" height="380" as="geometry" />
        </mxCell>
        <mxCell id="web" value="Spring Boot Web (WebFlux/MVC)" style="rounded=1;whiteSpace=wrap;html=1;" parent="svc" vertex="1">
          <mxGeometry x="20" y="40" width="360" height="60" as="geometry" />
        </mxCell>
        <mxCell id="app" value="Controller + Service" style="rounded=1;whiteSpace=wrap;html=1;" parent="svc" vertex="1">
          <mxGeometry x="20" y="120" width="360" height="60" as="geometry" />
        </mxCell>
        <mxCell id="ports" value="Ports (interfaces)" style="rounded=1;whiteSpace=wrap;html=1;" parent="svc" vertex="1">
          <mxGeometry x="20" y="200" width="160" height="60" as="geometry" />
        </mxCell>
        <mxCell id="adapters" value="Adapters (stub/cliente)" style="rounded=1;whiteSpace=wrap;html=1;" parent="svc" vertex="1">
          <mxGeometry x="220" y="200" width="160" height="60" as="geometry" />
        </mxCell>
        <mxCell id="conf" value="Config (Clock)" style="rounded=1;whiteSpace=wrap;html=1;" parent="svc" vertex="1">
          <mxGeometry x="20" y="280" width="160" height="60" as="geometry" />
        </mxCell>
        <mxCell id="lhs2" value="Loan History Service" style="ellipse;whiteSpace=wrap;html=1;" parent="1" vertex="1">
          <mxGeometry x="770" y="220" width="180" height="70" as="geometry" />
        </mxCell>
        <mxCell id="log2" value="Observability" style="ellipse;whiteSpace=wrap;html=1;" parent="1" vertex="1">
          <mxGeometry x="780" y="340" width="150" height="60" as="geometry" />
        </mxCell>
        <mxCell id="e21" value="" style="endArrow=block;html=1;" parent="1" source="web" target="app" edge="1">
          <mxGeometry relative="1" as="geometry" />
        </mxCell>
        <mxCell id="e22" value="" style="endArrow=block;html=1;" parent="1" source="app" target="ports" edge="1">
          <mxGeometry relative="1" as="geometry" />
        </mxCell>
        <mxCell id="e23" value="" style="endArrow=block;html=1;" parent="1" source="ports" target="adapters" edge="1">
          <mxGeometry relative="1" as="geometry" />
        </mxCell>
        <mxCell id="e24" value="" style="endArrow=block;html=1;" parent="1" source="adapters" target="lhs2" edge="1">
          <mxGeometry relative="1" as="geometry" />
        </mxCell>
        <mxCell id="e25" value="" style="endArrow=block;html=1;" parent="1" source="app" target="log2" edge="1">
          <mxGeometry relative="1" as="geometry" />
        </mxCell>
      </root>
    </mxGraphModel>
  </diagram>
  <diagram id="c3" name="C3 - Componentes">
    <mxGraphModel dx="905" dy="1438" grid="1" gridSize="10" guides="1" tooltips="1" connect="1" arrows="1" fold="1" page="1" pageScale="1" pageWidth="1169" pageHeight="827" math="0" shadow="0">
      <root>
        <mxCell id="0" />
        <mxCell id="1" parent="0" />
        <mxCell id="ctrl" value="LoanValidationsController" style="rounded=1;whiteSpace=wrap;html=1;" parent="1" vertex="1">
          <mxGeometry x="120" y="160" width="220" height="60" as="geometry" />
        </mxCell>
        <mxCell id="svc3" value="LoanRulesService" style="rounded=1;whiteSpace=wrap;html=1;" parent="1" vertex="1">
          <mxGeometry x="420" y="160" width="200" height="60" as="geometry" />
        </mxCell>
        <mxCell id="req" value="LoanValidationRequest" style="rounded=1;whiteSpace=wrap;html=1;" parent="1" vertex="1">
          <mxGeometry x="120" y="250" width="220" height="50" as="geometry" />
        </mxCell>
        <mxCell id="res" value="LoanValidationResponse" style="rounded=1;whiteSpace=wrap;html=1;" parent="1" vertex="1">
          <mxGeometry x="420" y="250" width="200" height="50" as="geometry" />
        </mxCell>
        <mxCell id="port" value="LoanHistoryClient (Port)" style="rounded=1;whiteSpace=wrap;html=1;dashed=1;" parent="1" vertex="1">
          <mxGeometry x="420" y="330" width="200" height="50" as="geometry" />
        </mxCell>
        <mxCell id="adp" value="StubLoanHistoryClient (Adapter)" style="rounded=1;whiteSpace=wrap;html=1;dashed=1;" parent="1" vertex="1">
          <mxGeometry x="680" y="330" width="220" height="50" as="geometry" />
        </mxCell>
        <mxCell id="cfg3" value="ClockConfig" style="rounded=1;whiteSpace=wrap;html=1;" parent="1" vertex="1">
          <mxGeometry x="420" y="420" width="200" height="50" as="geometry" />
        </mxCell>
        <mxCell id="e31" value="POST /api/loan-eligibility" style="endArrow=block;html=1;" parent="1" source="ctrl" target="svc3" edge="1">
          <mxGeometry relative="1" as="geometry" />
        </mxCell>
        <mxCell id="e32" value="" style="endArrow=block;html=1;" parent="1" source="ctrl" target="req" edge="1">
          <mxGeometry relative="1" as="geometry" />
        </mxCell>
        <mxCell id="e33" value="" style="endArrow=block;html=1;" parent="1" source="svc3" target="res" edge="1">
          <mxGeometry relative="1" as="geometry" />
        </mxCell>
        <mxCell id="e34" value="" style="endArrow=block;html=1;" parent="1" source="svc3" target="port" edge="1">
          <mxGeometry relative="1" as="geometry" />
        </mxCell>
        <mxCell id="e35" value="" style="endArrow=block;html=1;" parent="1" source="port" target="adp" edge="1">
          <mxGeometry relative="1" as="geometry" />
        </mxCell>
        <mxCell id="e36" value="" style="endArrow=block;html=1;dashed=1;" parent="1" source="cfg3" target="svc3" edge="1">
          <mxGeometry relative="1" as="geometry" />
        </mxCell>
      </root>
    </mxGraphModel>
  </diagram>
</mxfile>
